<?xml version="1.0" encoding="UTF-8" standalone="no"?>
<svg
   xmlns:dc="http://purl.org/dc/elements/1.1/"
   xmlns:cc="http://creativecommons.org/ns#"
   xmlns:rdf="http://www.w3.org/1999/02/22-rdf-syntax-ns#"
   xmlns:svg="http://www.w3.org/2000/svg"
   xmlns="http://www.w3.org/2000/svg"
   viewBox="0 0 400 400"
   height="400"
   width="400"
   xml:space="preserve"
   id="svg2"
   version="1.1"><metadata
     id="metadata8"><rdf:RDF><cc:Work
         rdf:about=""><dc:format>image/svg+xml</dc:format><dc:type
           rdf:resource="http://purl.org/dc/dcmitype/StillImage" /></cc:Work></rdf:RDF></metadata><defs
     id="defs6"><clipPath
       id="clipPath18"
       clipPathUnits="userSpaceOnUse"><path
         id="path16"
         d="M 150,300 C 67.157,300 0,232.843 0,150 v 0 C 0,67.157 67.157,0 150,0 v 0 c 82.843,0 150,67.157 150,150 v 0 c 0,82.843 -67.157,150 -150,150 z" /></clipPath></defs><g
     transform="matrix(1.3333333,0,0,-1.3333333,0,400)"
     id="g10"><g
       id="g12"><g
         clip-path="url(#clipPath18)"
         id="g14"><path
           id="path20"
           style="fill:#ffffff;fill-opacity:1;fill-rule:nonzero;stroke:none"
           d="M -75,300 H 375 V 0 H -75 Z" /><path
           id="path22"
           style="fill:#000000;fill-opacity:1;fill-rule:nonzero;stroke:none"
           d="M -75,300 H 375 V 210 H -75 Z" /><path
           id="path24"
           style="fill:#006600;fill-opacity:1;fill-rule:nonzero;stroke:none"
           d="M -75,90 H 375 V 0 H -75 Z" /><g
           transform="translate(96.4146,60.9375)"
           id="g26"><path
             id="path28"
             style="fill:#000000;fill-opacity:1;fill-rule:nonzero;stroke:none"
             d="m 0,0 3.248,-1.875 87.586,151.704 c 5.123,1.373 7.935,6.244 10.748,11.115 1.875,3.248 9.375,16.239 12.625,33.118 -12.993,-11.254 -20.493,-24.245 -22.368,-27.493 -2.813,-4.871 -5.625,-9.742 -4.253,-14.865 z" /></g><g
           transform="translate(96.4146,60.9375)"
           id="g30"><path
             id="path32"
             style="fill:none;stroke:#000000;stroke-width:0.5;stroke-linecap:butt;stroke-linejoin:miter;stroke-miterlimit:10;stroke-dasharray:none;stroke-opacity:1"
             d="m 0,0 3.248,-1.875 87.586,151.704 c 5.123,1.373 7.935,6.244 10.748,11.115 1.875,3.248 9.375,16.239 12.625,33.118 -12.993,-11.254 -20.493,-24.245 -22.368,-27.493 -2.813,-4.871 -5.625,-9.742 -4.253,-14.865 z" /></g><g
           transform="translate(96.4146,60.9375)"
           id="g34"><path
             id="path36"
             style="fill:#ffffff;fill-opacity:1;fill-rule:nonzero;stroke:none"
             d="m 0,0 3.248,-1.875 87.586,151.704 c 5.123,1.373 7.935,6.244 10.748,11.115 1.875,3.248 9.375,16.239 12.625,33.118 -12.993,-11.254 -20.493,-24.245 -22.368,-27.493 -2.813,-4.871 -5.625,-9.742 -4.253,-14.865 z" /></g><g
           transform="translate(203.5849,60.9375)"
           id="g38"><path
             id="path40"
             style="fill:#000000;fill-opacity:1;fill-rule:nonzero;stroke:none"
             d="m 0,0 -3.248,-1.875 -87.586,151.704 c -5.123,1.373 -7.935,6.244 -10.748,11.115 -1.875,3.248 -9.375,16.239 -12.625,33.118 12.993,-11.254 20.493,-24.245 22.368,-27.493 2.813,-4.871 5.625,-9.742 4.253,-14.865 z" /></g><g
           transform="translate(203.5849,60.9375)"
           id="g42"><path
             id="path44"
             style="fill:none;stroke:#000000;stroke-width:0.5;stroke-linecap:butt;stroke-linejoin:miter;stroke-miterlimit:10;stroke-dasharray:none;stroke-opacity:1"
             d="m 0,0 -3.248,-1.875 -87.586,151.704 c -5.123,1.373 -7.935,6.244 -10.748,11.115 -1.875,3.248 -9.375,16.239 -12.625,33.118 12.993,-11.254 20.493,-24.245 22.368,-27.493 2.813,-4.871 5.625,-9.742 4.253,-14.865 z" /></g><g
           transform="translate(203.5849,60.9375)"
           id="g46"><path
             id="path48"
             style="fill:#ffffff;fill-opacity:1;fill-rule:nonzero;stroke:none"
             d="m 0,0 -3.248,-1.875 -87.586,151.704 c -5.123,1.373 -7.935,6.244 -10.748,11.115 -1.875,3.248 -9.375,16.239 -12.625,33.118 12.993,-11.254 20.493,-24.245 22.368,-27.493 2.813,-4.871 5.625,-9.742 4.253,-14.865 z" /></g><g
           transform="translate(-75,195)"
           id="g50"><path
             id="path52"
             style="fill:#bb0000;fill-opacity:1;fill-rule:nonzero;stroke:none"
             d="m 0,0 v -90 h 189.375 c 5.625,-15 24.375,-45 35.625,-45 11.25,0 30,30 35.625,45 H 450 V 0 H 260.625 C 255,15 236.25,45 225,45 213.75,45 195,15 189.375,0 Z" /></g><g
           transform="translate(185.625,105)"
           id="g54"><path
             id="path56"
             style="fill:#000000;fill-opacity:1;fill-rule:nonzero;stroke:none"
             d="M 0,0 C 5.625,15 9.375,30 9.375,45 9.375,60 5.625,75 0,90 -5.625,75 -9.375,60 -9.375,45 -9.375,30 -5.625,15 0,0" /></g><g
           transform="translate(114.375,105)"
           id="g58"><path
             id="path60"
             style="fill:#000000;fill-opacity:1;fill-rule:nonzero;stroke:none"
             d="m 0,0 c -5.625,15 -9.375,30 -9.375,45 0,15 3.75,30 9.375,45 C 5.625,75 9.375,60 9.375,45 9.375,30 5.625,15 0,0" /></g><g
           transform="translate(150,161.25)"
           id="g62"><path
             id="path64"
             style="fill:#ffffff;fill-opacity:1;fill-rule:nonzero;stroke:none"
             d="M 0,0 C 4.142,0 7.5,-5.037 7.5,-11.25 7.5,-17.463 4.142,-22.5 0,-22.5 c -4.143,0 -7.5,5.037 -7.5,11.25 C -7.5,-5.037 -4.143,0 0,0" /></g><g
           transform="translate(151.875,139.0312)"
           id="g66"><path
             id="path68"
             style="fill:#ffffff;fill-opacity:1;fill-rule:nonzero;stroke:none"
             d="M 0,0 C 0,0 7.5,-15 7.5,-39.375 7.5,-63.75 0,-78.75 0,-78.75 Z" /></g><g
           transform="translate(148.125,160.9687)"
           id="g70"><path
             id="path72"
             style="fill:#ffffff;fill-opacity:1;fill-rule:nonzero;stroke:none"
             d="M 0,0 C 0,0 -7.5,15 -7.5,39.375 -7.5,63.75 0,78.75 0,78.75 Z" /></g><g
           transform="translate(148.125,139.0312)"
           id="g74"><path
             id="path76"
             style="fill:#ffffff;fill-opacity:1;fill-rule:nonzero;stroke:none"
             d="M 0,0 C 0,0 -7.5,-15 -7.5,-39.375 -7.5,-63.75 0,-78.75 0,-78.75 Z" /></g><g
           transform="translate(151.875,160.9687)"
           id="g78"><path
             id="path80"
             style="fill:#ffffff;fill-opacity:1;fill-rule:nonzero;stroke:none"
             d="M 0,0 C 0,0 7.5,15 7.5,39.375 7.5,63.75 0,78.75 0,78.75 Z" /></g></g></g></g></svg>